<svg width="40" height="40" viewBox="0 0 40 40" fill="none" xmlns="http://www.w3.org/2000/svg">
<path d="M35.0172 26.4182L32.9967 32.9877L29.03 31.9446L35.0172 26.4182Z" fill="#E4761B" stroke="#E4761B" stroke-width="0.190386"/>
<path d="M29.03 31.9446L32.8559 26.904L35.0172 26.4182L29.03 31.9446Z" fill="#E4761B" stroke="#E4761B" stroke-width="0.190386"/>
<path d="M32.0444 21.4652L35.0173 26.4183L32.856 26.904L32.0444 21.4652ZM32.0444 21.4652L33.9574 20.1912L35.0173 26.4183L32.0444 21.4652Z" fill="#F6851B" stroke="#F6851B" stroke-width="0.190386"/>
<path d="M29.6101 17.7226L35.1087 15.5566L34.8354 16.7431L29.6101 17.7226ZM34.6615 18.1685L29.6101 17.7226L34.8354 16.7431L34.6615 18.1685Z" fill="#763D16" stroke="#763D16" stroke-width="0.190386"/>
<path d="M34.6615 18.1685L33.9577 20.1911L29.6101 17.7226L34.6615 18.1685ZM35.7629 16.0583L34.8354 16.7431L35.1087 15.5566L35.7629 16.0583ZM34.6615 18.1685L34.8354 16.7431L35.5725 17.3324L34.6615 18.1685Z" fill="#763D16" stroke="#763D16" stroke-width="0.190386"/>
<path d="M24.7659 30.344L26.1405 30.766L29.0306 31.9446L24.7659 30.344Z" fill="#E2761B" stroke="#E2761B" stroke-width="0.190386"/>
<path d="M33.9573 20.1912L34.6612 18.1686L35.2657 18.6145L33.9573 20.1912ZM33.9573 20.1912L28.2517 18.3836L29.6098 17.7227L33.9573 20.1912Z" fill="#763D16" stroke="#763D16" stroke-width="0.190386"/>
<path d="M30.9679 11.5194L29.6098 17.7226L28.2517 18.3836L30.9679 11.5194Z" fill="#763D16" stroke="#763D16" stroke-width="0.190386"/>
<path d="M35.1087 15.5567L29.6101 17.7226L30.9682 11.5194L35.1087 15.5567Z" fill="#763D16" stroke="#763D16" stroke-width="0.190386"/>
<path d="M30.9678 11.5194L36.7065 10.8823L35.1083 15.5566L30.9678 11.5194Z" fill="#763D16" stroke="#763D16" stroke-width="0.190386"/>
<path d="M33.9573 20.1912L32.0444 21.4652L28.2517 18.3835L33.9573 20.1912Z" fill="#F6851B" stroke="#F6851B" stroke-width="0.190386"/>
<path d="M36.4581 6.41516L36.7065 10.8824L30.9678 11.5195L36.4581 6.41516Z" fill="#763D16" stroke="#763D16" stroke-width="0.190386"/>
<path d="M36.4586 6.41516L24.9894 14.434L24.8403 8.99519L36.4586 6.41516Z" fill="#E2761B" stroke="#E2761B" stroke-width="0.190386"/>
<path d="M16.3103 8.34216L24.8398 8.99513L24.9888 14.4339L16.3103 8.34216Z" fill="#F6851B" stroke="#F6851B" stroke-width="0.190386"/>
<path d="M28.252 18.3836L24.9893 14.4339L30.9682 11.5194L28.252 18.3836Z" fill="#763D16" stroke="#763D16" stroke-width="0.190386"/>
<path d="M28.2517 18.3835L32.0444 21.4652L26.7197 22.0306L28.2517 18.3835Z" fill="#E4761B" stroke="#E4761B" stroke-width="0.190386"/>
<path d="M26.72 22.0307L24.9893 14.434L28.252 18.3836L26.72 22.0307Z" fill="#E4761B" stroke="#E4761B" stroke-width="0.190386"/>
<path d="M30.9682 11.5195L24.9893 14.434L36.4585 6.41516L30.9682 11.5195Z" fill="#763D16" stroke="#763D16" stroke-width="0.190386"/>
<path d="M16.3851 31.8171L19.093 34.5325L15.408 31.3075L16.3851 31.8171Z" fill="#C0AD9E" stroke="#C0AD9E" stroke-width="0.190386"/>
<path d="M29.03 31.9445L30.3136 27.2543L32.8559 26.9039L29.03 31.9445Z" fill="#CD6116" stroke="#CD6116" stroke-width="0.190386"/>
<path d="M5.4043 18.7497L10.0914 14.0117L6.00881 18.1844L5.4043 18.7497Z" fill="#E2761B" stroke="#E2761B" stroke-width="0.190386"/>
<path d="M32.8558 26.904L30.3136 27.2544L32.0443 21.4653L32.8558 26.904ZM24.9888 14.4339L20.426 14.2906L16.3103 8.34216L24.9888 14.4339Z" fill="#F6851B" stroke="#F6851B" stroke-width="0.190386"/>
<path d="M32.0441 21.4653L30.3134 27.2545L30.1726 24.4276L32.0441 21.4653Z" fill="#E4751F" stroke="#E4751F" stroke-width="0.190386"/>
<path d="M26.7197 22.0307L32.0444 21.4653L30.1729 24.4276L26.7197 22.0307Z" fill="#CD6116" stroke="#CD6116" stroke-width="0.190386"/>
<path d="M20.4263 14.2905L24.9891 14.4339L26.7199 22.0306L20.4263 14.2905Z" fill="#F6851B" stroke="#F6851B" stroke-width="0.190386"/>
<path d="M20.4261 14.2905L8.11222 3.33337L16.3104 8.34213L20.4261 14.2905ZM16.3022 33.4815L5.60306 36.6667L3.46655 28.8231L16.3022 33.4815Z" fill="#E4761B" stroke="#E4761B" stroke-width="0.190386"/>
<path d="M6.99414 20.7087L11.0353 17.6588L14.4222 18.4153L6.99414 20.7087Z" fill="#763D16" stroke="#763D16" stroke-width="0.190386"/>
<path d="M14.4226 18.4154L11.0356 17.6589L12.8492 10.4603L14.4226 18.4154Z" fill="#763D16" stroke="#763D16" stroke-width="0.190386"/>
<path d="M6.00879 18.1844L11.0354 17.6588L6.99423 20.7087L6.00879 18.1844Z" fill="#763D16" stroke="#763D16" stroke-width="0.190386"/>
<path d="M30.1729 24.4274L28.0861 23.4161L26.7197 22.0305L30.1729 24.4274Z" fill="#CD6116" stroke="#CD6116" stroke-width="0.190386"/>
<path d="M6.00916 18.1846L5.65308 16.377L11.0358 17.659L6.00916 18.1846Z" fill="#763D16" stroke="#763D16" stroke-width="0.190386"/>
<path d="M27.6555 25.6937L28.0861 23.4163L30.173 24.4276L27.6555 25.6937Z" fill="#233447" stroke="#233447" stroke-width="0.190386"/>
<path d="M30.3137 27.2544L27.6555 25.6936L30.173 24.4275L30.3137 27.2544Z" fill="#F6851B" stroke="#F6851B" stroke-width="0.190386"/>
<path d="M11.0352 17.6589L5.65252 16.3769L5.21362 14.8559L11.0352 17.6589ZM12.8487 10.4603L11.0352 17.6589L5.21362 14.8559L12.8487 10.4603ZM12.8487 10.4603L20.4259 14.2906L14.4221 18.4154L12.8487 10.4603Z" fill="#763D16" stroke="#763D16" stroke-width="0.190386"/>
<path d="M14.4224 18.4154L20.4261 14.2905L23.1009 22.1501L14.4224 18.4154ZM23.1009 22.1501L14.8033 21.9828L14.4224 18.4154L23.1009 22.1501Z" fill="#E4761B" stroke="#E4761B" stroke-width="0.190386"/>
<path d="M6.99414 20.7087L14.4222 18.4154L14.8032 21.9828L6.99414 20.7087ZM26.7196 22.0306L23.1008 22.1501L20.426 14.2905L26.7196 22.0306Z" fill="#F6851B" stroke="#F6851B" stroke-width="0.190386"/>
<path d="M28.0861 23.4161L27.6555 25.6935L26.7197 22.0305L28.0861 23.4161Z" fill="#CD6116" stroke="#CD6116" stroke-width="0.190386"/>
<path d="M8.11255 3.33337L20.4265 14.2905L12.8493 10.4603L8.11255 3.33337Z" fill="#763D16" stroke="#763D16" stroke-width="0.190386"/>
<path d="M3.46655 28.8231L13.851 28.4091L16.3022 33.4815L3.46655 28.8231Z" fill="#E4761B" stroke="#E4761B" stroke-width="0.190386"/>
<path d="M16.302 33.4815L13.8508 28.4091L18.9519 28.1702L16.302 33.4815Z" fill="#CD6116" stroke="#CD6116" stroke-width="0.190386"/>
<path d="M27.6555 25.6936L30.3137 27.2544L31.7794 30.575L27.6555 25.6936ZM14.8033 21.9828L3.46655 28.8231L6.99428 20.7087L14.8033 21.9828ZM13.851 28.409L3.46655 28.8231L14.8033 21.9828L13.851 28.409ZM26.7197 22.0306L27.3988 24.4036L24.1195 24.5867L26.7197 22.0306ZM24.1195 24.5867L23.1009 22.1501L26.7197 22.0306L24.1195 24.5867Z" fill="#F6851B" stroke="#F6851B" stroke-width="0.190386"/>
<path d="M19.0925 34.5326L16.3018 33.4814L26.0071 35.0502L19.0925 34.5326Z" fill="#C0AD9E" stroke="#C0AD9E" stroke-width="0.190386"/>
<path d="M6.99426 20.7087L5.4043 18.7498L6.00881 18.1844L6.99426 20.7087Z" fill="#763D16" stroke="#763D16" stroke-width="0.190386"/>
<path d="M27.1085 33.8876L26.0071 35.0502L16.3018 33.4814L27.1085 33.8876Z" fill="#D7C1B3" stroke="#D7C1B3" stroke-width="0.190386"/>
<path d="M27.6302 31.0369L16.3018 33.4815L18.9517 28.1702L27.6302 31.0369Z" fill="#E4761B" stroke="#E4761B" stroke-width="0.190386"/>
<path d="M16.3018 33.4815L27.6302 31.0369L27.1085 33.8876L16.3018 33.4815Z" fill="#D7C1B3" stroke="#D7C1B3" stroke-width="0.190386"/>
<path d="M5.21371 14.8559L4.84106 8.7323L12.8488 10.4603L5.21371 14.8559ZM6.00869 18.1844L4.90731 17.1094L5.65261 16.3768L6.00869 18.1844Z" fill="#763D16" stroke="#763D16" stroke-width="0.190386"/>
<path d="M21.2458 23.7268L23.1008 22.1501L22.8358 26.0043L21.2458 23.7268Z" fill="#CD6116" stroke="#CD6116" stroke-width="0.190386"/>
<path d="M23.1007 22.1501L21.2458 23.7268L18.5461 25.0726L23.1007 22.1501Z" fill="#CD6116" stroke="#CD6116" stroke-width="0.190386"/>
<path d="M31.7795 30.5751L31.2743 30.2167L27.6555 25.6937L31.7795 30.5751Z" fill="#F6851B" stroke="#F6851B" stroke-width="0.190386"/>
<path d="M18.5465 25.0726L14.8035 21.9829L23.1011 22.1501L18.5465 25.0726Z" fill="#CD6116" stroke="#CD6116" stroke-width="0.190386"/>
<path d="M22.8362 26.0043L23.1012 22.1501L24.1197 24.5868L22.8362 26.0043Z" fill="#E4751F" stroke="#E4751F" stroke-width="0.190386"/>
<path d="M4.54297 15.4611L5.21373 14.856L5.65263 16.3769L4.54297 15.4611Z" fill="#763D16" stroke="#763D16" stroke-width="0.190386"/>
<path d="M22.8357 26.0042L18.5461 25.0726L21.2458 23.7268L22.8357 26.0042Z" fill="#233447" stroke="#233447" stroke-width="0.190386"/>
<path d="M12.8488 10.4603L4.84106 8.73232L8.11208 3.33337L12.8488 10.4603Z" fill="#763D16" stroke="#763D16" stroke-width="0.190386"/>
<path d="M26.0074 35.0502L26.4629 36.2446L19.0928 34.5326L26.0074 35.0502Z" fill="#C0AD9E" stroke="#C0AD9E" stroke-width="0.190386"/>
<path d="M18.9519 28.1701L18.5461 25.0725L22.8357 26.0042L18.9519 28.1701Z" fill="#F6851B" stroke="#F6851B" stroke-width="0.190386"/>
<path d="M14.8035 21.9829L18.5465 25.0726L18.9523 28.1702L14.8035 21.9829Z" fill="#E4751F" stroke="#E4751F" stroke-width="0.190386"/>
<path d="M24.1193 24.5868L27.3986 24.4037L31.2741 30.2167L24.1193 24.5868ZM14.8032 21.9829L18.952 28.1702L13.8508 28.4091L14.8032 21.9829Z" fill="#F6851B" stroke="#F6851B" stroke-width="0.190386"/>
<path d="M24.1197 24.5867L28.194 30.551L22.8362 26.0041L24.1197 24.5867Z" fill="#E4751F" stroke="#E4751F" stroke-width="0.190386"/>
<path d="M22.8362 26.0043L28.194 30.5512L27.6309 31.0369L22.8362 26.0043Z" fill="#F6851B" stroke="#F6851B" stroke-width="0.190386"/>
<path d="M27.6307 31.0367L18.9521 28.17L22.836 26.0041L27.6307 31.0367ZM31.2743 30.2165L28.1938 30.551L24.1195 24.5867L31.2743 30.2165Z" fill="#F6851B" stroke="#F6851B" stroke-width="0.190386"/>
<path d="M32.0863 33.0197L30.7614 35.5758L26.4635 36.2447L32.0863 33.0197ZM26.4635 36.2447L26.0081 35.0502L27.1094 33.8876L26.4635 36.2447Z" fill="#C0AD9E" stroke="#C0AD9E" stroke-width="0.190386"/>
<path d="M27.1086 33.8876L27.9201 33.5771L26.4626 36.2447L27.1086 33.8876ZM26.4626 36.2447L27.9201 33.5771L32.0855 33.0197L26.4626 36.2447Z" fill="#C0AD9E" stroke="#C0AD9E" stroke-width="0.190386"/>
<path d="M31.2743 30.2166L32.2929 30.8138L29.1958 31.1721L31.2743 30.2166Z" fill="#161616" stroke="#161616" stroke-width="0.190386"/>
<path d="M29.1956 31.1721L28.1936 30.551L31.2742 30.2166L29.1956 31.1721ZM28.8395 31.6419L32.6074 31.204L32.0857 33.0195L28.8395 31.6419Z" fill="#161616" stroke="#161616" stroke-width="0.190386"/>
<path d="M32.0858 33.0196L27.9204 33.577L28.8396 31.642L32.0858 33.0196ZM27.9204 33.577L27.1089 33.8876L27.6306 31.0368L27.9204 33.577ZM27.6306 31.0368L28.1937 30.551L29.1957 31.1721L27.6306 31.0368ZM32.2928 30.8138L32.6075 31.204L28.8396 31.642L32.2928 30.8138Z" fill="#161616" stroke="#161616" stroke-width="0.190386"/>
<path d="M28.8394 31.642L29.1955 31.1722L32.2926 30.8138L28.8394 31.642ZM27.6304 31.0368L28.8394 31.642L27.9202 33.577L27.6304 31.0368Z" fill="#161616" stroke="#161616" stroke-width="0.190386"/>
<path d="M29.1955 31.1722L28.8394 31.642L27.6304 31.0369L29.1955 31.1722Z" fill="#161616" stroke="#161616" stroke-width="0.190386"/>
</svg>
