<svg width="40" height="40" viewBox="0 0 40 40" fill="none" xmlns="http://www.w3.org/2000/svg">
<path d="M40 20C40 8.9543 31.0457 0 20 0C8.9543 0 0 8.9543 0 20C0 31.0457 8.9543 40 20 40C31.0457 40 40 31.0457 40 20Z" fill="url(#paint0_radial_3555:63134)"/>
<path d="M13.2195 14.4165C16.9643 10.75 23.0358 10.75 26.7805 14.4165L27.2312 14.8577C27.4185 15.041 27.4185 15.3383 27.2312 15.5216L25.6895 17.0311C25.5959 17.1227 25.4441 17.1227 25.3505 17.0311L24.7303 16.4238C22.1178 13.866 17.8822 13.866 15.2698 16.4238L14.6056 17.0741C14.512 17.1658 14.3602 17.1658 14.2666 17.0741L12.7249 15.5646C12.5376 15.3813 12.5376 15.0841 12.7249 14.9008L13.2195 14.4165ZM29.969 17.5382L31.3411 18.8816C31.5283 19.065 31.5283 19.3622 31.3411 19.5455L25.1541 25.6032C24.9668 25.7865 24.6633 25.7865 24.476 25.6032C24.476 25.6032 24.476 25.6032 24.476 25.6032L20.0848 21.3039C20.038 21.2581 19.9621 21.2581 19.9153 21.3039C19.9153 21.3039 19.9153 21.3039 19.9153 21.3039L15.5242 25.6032C15.337 25.7865 15.0334 25.7865 14.8462 25.6032C14.8462 25.6032 14.8462 25.6032 14.8462 25.6032L8.65898 19.5454C8.47175 19.3621 8.47175 19.0649 8.65898 18.8816L10.0311 17.5381C10.2184 17.3548 10.5219 17.3548 10.7092 17.5381L15.1004 21.8375C15.1472 21.8834 15.2231 21.8834 15.2699 21.8375C15.2699 21.8375 15.2699 21.8375 15.2699 21.8375L19.6609 17.5381C19.8482 17.3548 20.1517 17.3548 20.339 17.5381C20.339 17.5381 20.339 17.5381 20.339 17.5381L24.7302 21.8375C24.777 21.8833 24.8529 21.8833 24.8997 21.8375L29.2909 17.5382C29.4781 17.3549 29.7817 17.3549 29.969 17.5382Z" fill="white"/>
<defs>
<radialGradient id="paint0_radial_3555:63134" cx="0" cy="0" r="1" gradientUnits="userSpaceOnUse" gradientTransform="translate(0 20) scale(40)">
<stop stop-color="#5D9DF6"/>
<stop offset="1" stop-color="#006FFF"/>
</radialGradient>
</defs>
</svg>
